<svg width="90" height="84" viewBox="0 0 90 84" fill="none" xmlns="http://www.w3.org/2000/svg">
<path d="M81.855 0L33.0783 50.2687L18.9219 40.1625H11.0728L33.0783 73.6312L89.7041 0H81.855Z" fill="#83BF4F"/>
<path d="M75.5478 73.6312C75.5478 74.4187 74.8469 75.075 74.006 75.075H11.0729C10.2319 75.075 9.53107 74.4187 9.53107 73.6312V14.7C9.53107 13.9125 10.2319 13.2563 11.0729 13.2563H54.1028L62.6528 4.46252H3.08358C1.40163 4.46252 0 5.77502 0 7.35002V80.9812C0 82.6875 1.40163 84 3.08358 84H81.7149C83.3969 84 84.7985 82.6875 84.7985 81.1125V23.7563L75.4076 36.0938C75.5477 36.0938 75.5478 73.6312 75.5478 73.6312Z" fill="#3E4347"/>
</svg>
