<svg width="68" height="75" viewBox="0 0 68 75" fill="none" xmlns="http://www.w3.org/2000/svg">
<path d="M18.2542 15.1151C13.9522 15.6964 9.99907 17.2079 6.62725 20.4635L3.13916 11.0456C6.51098 7.79007 10.4641 6.27857 14.7661 5.69722L18.2542 15.1151Z" fill="#333333"/>
<path d="M31.7418 14.9988C27.091 14.7662 22.4402 14.5337 18.1382 15.1151L14.6501 5.69722C18.9521 5.11587 23.6029 5.34841 28.2537 5.58095L31.7418 14.9988Z" fill="white"/>
<path d="M45.3453 14.8825C41.0433 15.4639 36.3925 15.2313 31.7418 14.9988L28.2537 5.58095C32.9044 5.81349 37.5552 6.04602 41.8572 5.46468C43.0199 8.48769 44.1826 11.627 45.3453 14.8825Z" fill="#333333"/>
<path d="M56.972 9.41784C53.6001 12.6734 49.647 14.1849 45.345 14.7662L41.8569 5.3484C46.1589 4.76706 50.112 3.25555 53.4839 0L56.972 9.41784ZM21.7423 24.5329C17.4403 25.1142 13.4871 26.6258 10.1153 29.8813L6.6272 20.4635C9.99902 17.2079 13.9522 15.6964 18.2542 15.1151L21.7423 24.5329Z" fill="white"/>
<path d="M35.2298 24.4166C30.579 24.1841 25.9283 23.9515 21.6263 24.5329L18.1382 15.115C22.4402 14.5337 27.0909 14.7662 31.7417 14.9988L35.2298 24.4166Z" fill="#333333"/>
<path d="M48.8333 24.3004C44.5314 24.8817 39.8806 24.6492 35.2298 24.4166L31.7417 14.9988C36.3925 15.2313 41.0433 15.4639 45.3453 14.8825L48.8333 24.3004Z" fill="white"/>
<path d="M60.4602 18.9519C57.0884 22.2075 53.1352 23.719 48.8333 24.3003L45.3452 14.8825C49.6472 14.3012 53.6003 12.7897 56.9721 9.5341C58.1348 12.5571 59.2975 15.6964 60.4602 18.9519ZM25.2305 34.067C20.9286 34.6483 16.9754 36.1599 13.6036 39.4154L10.1155 29.9976C13.4873 26.742 17.4405 25.2305 21.7424 24.6492L25.2305 34.067Z" fill="#333333"/>
<path d="M38.8341 33.8345C34.1833 33.6019 29.5325 33.3694 25.2305 33.9507L21.7424 24.5329C26.0444 23.9516 30.6952 24.1841 35.346 24.4166C36.3924 27.5559 37.6714 30.6952 38.8341 33.8345Z" fill="white"/>
<path d="M52.3213 33.7182C48.0193 34.2995 43.3686 34.067 38.834 33.8345L35.3459 24.4166C39.9967 24.6492 44.6475 24.8817 48.9495 24.3004C49.9959 27.4396 51.1586 30.5789 52.3213 33.7182Z" fill="#333333"/>
<path d="M63.9483 28.3698C60.5765 31.6253 56.6233 33.1369 52.3213 33.7182L48.8332 24.3004C53.1352 23.719 57.0884 22.2075 60.4602 18.952L63.9483 28.3698ZM28.7186 43.4849C24.4166 44.0662 20.4634 45.5777 17.0916 48.8333L13.6035 39.4154C16.9753 36.1599 20.9285 34.6484 25.2305 34.067L28.7186 43.4849Z" fill="white"/>
<path d="M42.3221 43.3686C37.6713 43.136 33.0205 42.9035 28.7186 43.4849L25.2305 34.067C29.5324 33.4857 34.1832 33.7182 38.834 33.9507L42.3221 43.3686Z" fill="#333333"/>
<path d="M55.8094 43.136C51.5074 43.7174 46.8566 43.4849 42.2059 43.2523L38.7178 33.8345C43.3686 34.067 48.0193 34.2995 52.2051 33.7182C53.484 36.8575 54.6467 39.9968 55.8094 43.136Z" fill="white"/>
<path d="M67.4364 37.7876C64.0646 41.0432 60.1114 42.5547 55.8094 43.136L52.3213 33.7182C56.6233 33.1369 60.5765 31.6254 63.9483 28.3698L67.4364 37.7876ZM26.6258 74.4126H24.4166L0 8.48769L1.97658 7.79007L26.6258 74.4126Z" fill="#333333"/>
</svg>
