<svg width="87" height="87" viewBox="0 0 87 87" fill="none" xmlns="http://www.w3.org/2000/svg">
<path d="M62.553 80.0696C62.1216 79.2068 42.1334 67.2714 42.1334 67.2714C39.2574 65.2582 38.9698 63.245 41.2706 61.9508C43.2838 60.9442 44.8656 57.7806 46.1598 54.3294C46.4474 54.4732 46.5912 54.4732 46.8788 54.3294C52.1994 52.7476 52.3432 42.1064 48.7482 43.9758C52.0556 15.072 11.9354 14.9282 15.2428 43.9758C11.6478 42.1064 11.7916 52.7476 17.1122 54.3294H17.8312C19.1254 57.7806 20.7072 60.9442 22.7204 61.9508C25.0212 63.1012 24.5898 64.9706 21.7138 67.2714C20.851 67.9904 7.909 75.1804 4.1702 77.625C2.7322 78.6316 1.5818 79.4944 1.438 79.9258C0.4314 82.3704 0 86.253 0 86.253H63.8472C63.8472 86.253 63.5596 82.3704 62.553 80.0696Z" fill="#5D6D74"/>
<path d="M46.7352 25.7132C49.3236 28.5892 52.1996 33.6222 52.0558 41.5312C53.0624 42.2502 53.9252 43.5444 54.2128 45.5576C54.788 49.2964 53.2062 55.336 48.4608 57.2054C47.1666 60.2252 45.7286 62.526 44.1468 63.8202H86.2802C86.2802 63.8202 85.8488 59.9376 84.8422 57.6368C84.4108 56.774 64.4226 44.8386 64.4226 44.8386C61.5466 42.8254 61.259 40.8122 63.5598 39.6618C65.573 38.6552 67.1548 35.4916 68.449 32.0404C68.7366 32.1842 68.8804 32.1842 69.168 32.0404C74.4886 30.4586 74.6324 19.8174 71.0374 21.6868C74.3448 -6.64181 35.9502 -7.21701 37.532 19.9612C41.127 20.9678 44.2906 22.8372 46.7352 25.7132Z" fill="#5D6D74"/>
</svg>
