<svg width="87" height="87" viewBox="0 0 87 87" fill="none" xmlns="http://www.w3.org/2000/svg">
<path d="M68.0514 46.3557C63.7392 34.9015 52.0155 25.4687 56.0582 11.4542C40.2918 12.8017 24.5255 14.284 8.7592 15.6316C1.21293 41.774 33.8236 56.1928 26.1426 82.3352C40.4266 74.9237 55.2496 68.3207 69.3989 61.044C70.8812 55.9233 69.6684 50.6678 68.0514 46.3557Z" fill="#93A2AA"/>
<path d="M8.89404 50.9374C13.0714 48.5118 17.3836 46.0862 21.561 43.5258C24.3909 46.0862 26.9512 48.916 28.4335 52.2849C23.9866 54.441 19.5397 56.7318 15.2275 58.8879C15.3623 56.8666 15.3623 54.98 15.2275 53.2282C13.2062 52.4197 11.0501 51.6111 8.89404 50.9374Z" fill="#933434"/>
<path d="M79.5052 45.0081C74.5193 31.8022 61.0438 21.0218 65.7602 4.85118C47.7031 6.46824 29.5112 8.0853 11.454 9.70236C2.69494 39.6179 40.022 56.1928 31.263 86.2431C47.5683 77.7536 64.6822 70.2073 80.9875 61.7177C82.7393 55.7885 81.3918 49.8593 79.5052 45.0081Z" fill="#B0BDC6"/>
<path d="M0 30.9936C5.52495 29.3766 11.1847 27.6248 16.7096 26.0077C19.4047 29.7808 21.5608 33.8235 22.5041 38.2704C16.7096 39.6179 11.0499 40.8307 5.25544 42.1783C6.06397 39.8875 6.46824 37.7314 6.73774 35.4405C4.58167 33.8235 2.42559 32.4759 0 30.9936Z" fill="#ED4C5C"/>
<path d="M13.8798 6.73774C6.46829 35.5753 44.6039 49.5898 37.0577 78.4274C53.0935 69.803 69.6683 61.8525 85.7042 53.2282C87.1865 47.5685 85.5694 41.9088 83.5481 37.4619C77.8884 25.0644 64.0086 15.3621 68.0513 0C49.9941 2.29083 31.937 4.58167 13.8798 6.73774Z" fill="#D9E3E8"/>
<path d="M19.9438 16.7096C20.0786 17.7877 20.3481 18.8657 20.4829 19.809L61.3136 11.7237C61.1788 10.9152 60.9093 10.1066 60.7746 9.2981C47.1643 11.8584 33.5541 14.284 19.9438 16.7096ZM23.717 28.1638C37.0577 24.9297 50.3985 21.6955 63.8739 18.4614C63.4697 17.6529 63.0654 16.9791 62.7959 16.1706C49.3204 19.27 35.8449 22.2346 22.3694 25.3339C22.7737 26.2772 23.3127 27.2205 23.717 28.1638ZM28.5682 35.8448C41.6394 32.0717 54.5759 28.2985 67.6471 24.5254C67.1081 23.8516 66.7038 23.0431 66.1648 22.3693C52.9588 26.0077 39.8876 29.5113 26.6816 33.1497C27.3554 34.093 27.8944 35.0363 28.5682 35.8448ZM43.1217 61.583C43.3912 62.661 43.526 63.6043 43.6607 64.6824C49.5899 61.8525 55.6539 58.8879 61.5831 56.058C61.4484 55.1148 61.3136 54.1715 61.0441 53.2282C55.1149 55.9233 49.1857 58.7531 43.1217 61.583Z" fill="#7D8B91"/>
</svg>
